<?xml version="1.0" standalone="no"?>
<!DOCTYPE svg PUBLIC "-//W3C//DTD SVG 20010904//EN"
 "http://www.w3.org/TR/2001/REC-SVG-20010904/DTD/svg10.dtd">
<svg version="1.0" xmlns="http://www.w3.org/2000/svg"
 width="448.000000pt" height="448.000000pt" viewBox="0 0 448.000000 448.000000"
 preserveAspectRatio="xMidYMid meet">
<metadata>
Created by potrace 1.14, written by Peter Selinger 2001-2017
</metadata>
<g transform="translate(0.000000,448.000000) scale(0.100000,-0.100000)"
fill="#000000" stroke="none">
<path d="M1222 2543 c-20 -8 -34 -51 -22 -73 14 -27 58 -35 81 -14 46 42 -1
110 -59 87z"/>
<path d="M780 2252 l0 -283 47 3 48 3 -1 117 0 117 110 3 110 3 2 38 1 37
-111 0 -112 0 0 74 c1 41 4 77 7 81 4 3 64 6 133 6 105 -1 126 2 127 14 1 8 1
27 2 42 l1 27 -182 1 -182 0 0 -283z"/>
<path d="M1802 2526 c-6 -11 -10 -523 -4 -543 2 -8 21 -13 43 -13 24 0 39 5
40 13 0 6 2 64 3 127 1 63 7 127 14 142 28 66 117 81 165 28 27 -30 27 -32 27
-171 l0 -140 43 3 42 3 0 150 c0 132 -3 154 -20 185 -47 80 -174 102 -246 43
-8 -7 -18 -13 -22 -13 -4 0 -6 41 -5 90 0 50 -2 94 -6 98 -12 11 -66 10 -74
-2z"/>
<path d="M2417 2460 c-24 -26 -34 -30 -82 -30 -90 0 -91 -1 -90 -229 1 -182 2
-194 21 -210 18 -14 52 -16 267 -16 221 0 248 2 264 18 15 15 18 40 18 209 1
228 1 228 -93 228 -53 0 -60 3 -80 29 -21 28 -24 29 -110 30 -86 1 -89 0 -115
-29z m199 -56 c21 -23 34 -29 72 -30 26 -1 52 -2 58 -3 11 -1 16 -330 5 -332
-3 -1 -104 -2 -223 -3 -145 -1 -218 1 -221 8 -2 6 -3 83 -3 171 l1 160 58 0
c52 0 61 3 80 27 17 21 32 27 67 30 73 5 80 3 106 -28z"/>
<path d="M2486 2340 c-110 -33 -130 -191 -31 -256 36 -23 104 -23 147 0 43 23
68 71 68 129 0 55 -44 112 -98 127 -42 11 -47 11 -86 0z m84 -65 c25 -13 42
-38 45 -70 2 -18 -25 -64 -44 -75 -27 -14 -78 -6 -101 15 -23 21 -27 81 -7
106 15 19 47 38 65 39 7 0 26 -7 42 -15z"/>
<path d="M1219 2383 c-14 -3 -16 -28 -15 -206 l1 -202 42 -3 42 -3 3 205 c2
132 -1 206 -7 207 -5 0 -19 2 -30 3 -11 2 -27 1 -36 -1z"/>
<path d="M1452 2370 c-67 -30 -101 -107 -71 -162 14 -26 83 -56 150 -64 72 -9
95 -18 102 -43 9 -36 -23 -64 -75 -65 -54 -1 -96 19 -104 50 -5 20 -12 23 -50
22 -52 -1 -57 -16 -21 -69 63 -94 252 -98 320 -7 23 31 25 90 2 124 -22 33
-58 47 -155 60 -65 8 -79 13 -90 35 -15 27 28 69 70 69 40 0 87 -24 95 -49 5
-15 14 -19 45 -18 34 1 40 5 40 24 0 27 -45 82 -79 95 -49 19 -134 18 -179 -2z"/>
<path d="M2880 2380 c-6 -4 5 -44 29 -106 131 -330 122 -302 105 -337 -22 -43
-19 -40 -72 -47 -46 -5 -47 -5 -48 -42 l-1 -38 58 0 c32 0 70 5 84 12 30 14
28 8 150 318 79 201 90 236 76 241 -15 6 -71 3 -76 -3 -1 -2 -23 -66 -50 -143
-26 -77 -51 -146 -54 -153 -4 -7 -19 24 -35 70 -16 46 -42 117 -57 158 -28 73
-30 75 -64 76 -19 0 -39 -2 -45 -6z"/>
<path d="M3428 2380 c-154 -46 -183 -287 -46 -377 36 -24 51 -28 118 -28 66 0
82 4 117 27 35 23 82 92 71 104 -3 2 -19 6 -36 8 -26 3 -39 -4 -72 -37 -39
-37 -44 -39 -88 -34 -54 6 -102 50 -102 93 l0 25 118 -1 c64 -1 134 -1 156 -1
l38 1 -5 50 c-3 27 -16 68 -28 90 -40 71 -150 108 -241 80z m153 -99 c46 -55
39 -60 -83 -58 -59 0 -108 2 -108 4 0 2 7 17 15 33 34 65 129 77 176 21z"/>
</g>
</svg>
